<svg width="326.48mm" height="170.16mm" viewBox="0 0 326.48 170.16" xmlns="http://www.w3.org/2000/svg" version="1.1" preserveAspectRatio="xMidYMid meet"><g id="svgGroup" stroke-linecap="round" fill-rule="evenodd" font-size="9pt" stroke="#000" stroke-width="0.25mm" fill="none" style="stroke:#000;stroke-width:0.25mm;fill:none"><path d="M 11.41 167.66 L 18.75 167.66 L 18.75 170.16 L 26.41 170.16 L 26.41 167.66 L 33.75 167.66 L 33.75 170.16 L 41.41 170.16 L 41.41 167.66 L 48.75 167.66 L 48.75 170.16 L 56.41 170.16 L 56.41 167.66 L 63.75 167.66 L 63.75 170.16 L 75.16 170.16 L 75.16 163.75 L 72.66 163.75 L 72.66 156.41 L 75.16 156.41 L 75.16 150 L 0 150 L 0 156.41 L 2.5 156.41 L 2.5 163.75 L 0 163.75 L 0 170.16 L 11.41 170.16 L 11.41 167.66 Z" id="front_outsideCutPath" stroke="#FF0000" stroke-width="0.1" style="stroke:#FF0000;stroke-width:0.1" vector-effect="non-scaling-stroke"/><path d="M 40.518 161.603 L 40.192 161.603 L 40.192 160.207 A 0.924 0.924 0 0 0 40.181 160.062 Q 40.169 159.986 40.143 159.925 A 0.389 0.389 0 0 0 40.071 159.813 A 0.368 0.368 0 0 0 39.92 159.717 Q 39.861 159.696 39.788 159.688 A 0.866 0.866 0 0 0 39.695 159.683 A 0.989 0.989 0 0 0 39.51 159.699 Q 39.407 159.719 39.328 159.763 A 0.461 0.461 0 0 0 39.199 159.866 A 0.534 0.534 0 0 0 39.106 160.029 Q 39.051 160.178 39.043 160.4 A 2.094 2.094 0 0 0 39.042 160.471 L 39.042 161.603 L 38.715 161.603 L 38.715 159.445 L 38.981 159.445 L 39.034 159.74 L 39.05 159.74 A 0.662 0.662 0 0 1 39.309 159.505 A 0.796 0.796 0 0 1 39.331 159.493 A 0.885 0.885 0 0 1 39.646 159.409 A 1.07 1.07 0 0 1 39.735 159.406 Q 39.993 159.406 40.167 159.488 A 0.587 0.587 0 0 1 40.321 159.594 Q 40.471 159.737 40.507 160.01 A 1.426 1.426 0 0 1 40.518 160.195 L 40.518 161.603 Z M 34.24 159.445 L 34.24 159.699 L 33.691 159.699 L 33.691 161.603 L 33.364 161.603 L 33.364 159.699 L 32.978 159.699 L 32.978 159.551 L 33.364 159.433 L 33.364 159.313 Q 33.364 158.627 33.882 158.533 A 0.993 0.993 0 0 1 34.059 158.518 A 1.052 1.052 0 0 1 34.208 158.529 Q 34.28 158.54 34.361 158.559 A 2.116 2.116 0 0 1 34.461 158.587 L 34.376 158.849 A 1.587 1.587 0 0 0 34.252 158.814 Q 34.19 158.799 34.135 158.793 A 0.703 0.703 0 0 0 34.053 158.787 A 0.441 0.441 0 0 0 33.947 158.799 A 0.283 0.283 0 0 0 33.779 158.911 Q 33.699 159.022 33.691 159.256 A 1.543 1.543 0 0 0 33.691 159.305 L 33.691 159.445 L 34.24 159.445 Z M 42.182 161.333 L 42.182 161.583 A 0.321 0.321 0 0 1 42.144 161.598 Q 42.103 161.612 42.045 161.622 A 1.222 1.222 0 0 1 42.025 161.625 Q 41.922 161.642 41.839 161.642 A 0.854 0.854 0 0 1 41.588 161.608 Q 41.213 161.493 41.213 160.983 L 41.213 159.699 L 40.904 159.699 L 40.904 159.542 L 41.213 159.406 L 41.351 158.945 L 41.54 158.945 L 41.54 159.445 L 42.166 159.445 L 42.166 159.699 L 41.54 159.699 L 41.54 160.969 A 0.658 0.658 0 0 0 41.55 161.084 Q 41.561 161.148 41.586 161.198 A 0.317 0.317 0 0 0 41.633 161.268 A 0.304 0.304 0 0 0 41.819 161.367 A 0.437 0.437 0 0 0 41.887 161.372 A 1.073 1.073 0 0 0 42.044 161.361 A 0.989 0.989 0 0 0 42.054 161.36 Q 42.131 161.347 42.178 161.334 A 0.493 0.493 0 0 0 42.182 161.333 Z M 35.876 159.429 L 35.831 159.732 A 1.44 1.44 0 0 0 35.727 159.713 Q 35.676 159.706 35.63 159.704 A 0.766 0.766 0 0 0 35.595 159.703 A 0.566 0.566 0 0 0 35.176 159.884 A 0.775 0.775 0 0 0 35.147 159.916 A 0.746 0.746 0 0 0 34.967 160.335 A 0.992 0.992 0 0 0 34.961 160.445 L 34.961 161.603 L 34.634 161.603 L 34.634 159.445 L 34.903 159.445 L 34.941 159.845 L 34.957 159.845 A 1.104 1.104 0 0 1 35.08 159.668 A 0.843 0.843 0 0 1 35.246 159.52 Q 35.415 159.406 35.618 159.406 A 1.5 1.5 0 0 1 35.752 159.411 A 1.095 1.095 0 0 1 35.876 159.429 Z M 38.112 160.85 A 1.688 1.688 0 0 0 38.142 160.522 Q 38.142 160.312 38.098 160.138 A 1.018 1.018 0 0 0 37.875 159.707 A 0.856 0.856 0 0 0 37.478 159.451 A 1.098 1.098 0 0 0 37.156 159.406 A 1.269 1.269 0 0 0 36.928 159.425 A 0.864 0.864 0 0 0 36.423 159.7 Q 36.248 159.895 36.189 160.194 A 1.697 1.697 0 0 0 36.16 160.522 Q 36.16 160.863 36.282 161.117 A 1.074 1.074 0 0 0 36.305 161.163 A 0.885 0.885 0 0 0 36.628 161.506 Q 36.853 161.642 37.142 161.642 A 1.269 1.269 0 0 0 37.364 161.624 A 0.871 0.871 0 0 0 37.876 161.346 A 0.912 0.912 0 0 0 37.985 161.197 Q 38.073 161.045 38.112 160.85 Z M 36.498 160.522 A 1.655 1.655 0 0 0 36.514 160.758 Q 36.549 161.002 36.664 161.152 A 0.536 0.536 0 0 0 37.012 161.357 A 0.812 0.812 0 0 0 37.15 161.369 A 0.759 0.759 0 0 0 37.35 161.344 A 0.528 0.528 0 0 0 37.637 161.153 A 0.702 0.702 0 0 0 37.746 160.94 Q 37.778 160.842 37.793 160.722 A 1.721 1.721 0 0 0 37.803 160.522 A 1.631 1.631 0 0 0 37.788 160.29 Q 37.753 160.045 37.637 159.897 A 0.538 0.538 0 0 0 37.303 159.697 A 0.824 0.824 0 0 0 37.146 159.683 A 0.778 0.778 0 0 0 36.952 159.706 A 0.521 0.521 0 0 0 36.662 159.894 A 0.676 0.676 0 0 0 36.557 160.097 Q 36.526 160.19 36.511 160.304 A 1.727 1.727 0 0 0 36.498 160.522 Z" id="front_labelLayer" stroke="#000000" fill="#000000" style="stroke:#000000;fill:#000000" vector-effect="non-scaling-stroke"/><path d="M 92.07 167.66 L 99.41 167.66 L 99.41 170.16 L 107.07 170.16 L 107.07 167.66 L 114.41 167.66 L 114.41 170.16 L 122.07 170.16 L 122.07 167.66 L 129.41 167.66 L 129.41 170.16 L 137.07 170.16 L 137.07 167.66 L 144.41 167.66 L 144.41 170.16 L 152.07 170.16 L 152.07 167.66 L 159.41 167.66 L 159.41 170.16 L 167.07 170.16 L 167.07 167.66 L 174.41 167.66 L 174.41 170.16 L 182.07 170.16 L 182.07 167.66 L 189.41 167.66 L 189.41 170.16 L 197.07 170.16 L 197.07 167.66 L 204.41 167.66 L 204.41 170.16 L 212.07 170.16 L 212.07 167.66 L 219.41 167.66 L 219.41 170.16 L 227.07 170.16 L 227.07 167.66 L 234.41 167.66 L 234.41 170.16 L 245.82 170.16 L 245.82 163.91 L 248.32 163.91 L 248.32 156.25 L 245.82 156.25 L 245.82 150 L 80.66 150 L 80.66 156.25 L 78.16 156.25 L 78.16 163.91 L 80.66 163.91 L 80.66 170.16 L 92.07 170.16 L 92.07 167.66 Z" id="left_outsideCutPath" stroke="#FF0000" stroke-width="0.1" style="stroke:#FF0000;stroke-width:0.1" vector-effect="non-scaling-stroke"/><path d="M 164.674 159.445 L 164.674 159.699 L 164.125 159.699 L 164.125 161.603 L 163.798 161.603 L 163.798 159.699 L 163.412 159.699 L 163.412 159.551 L 163.798 159.433 L 163.798 159.313 Q 163.798 158.627 164.316 158.533 A 0.993 0.993 0 0 1 164.493 158.518 A 1.052 1.052 0 0 1 164.642 158.529 Q 164.714 158.54 164.795 158.559 A 2.116 2.116 0 0 1 164.895 158.587 L 164.81 158.849 A 1.587 1.587 0 0 0 164.687 158.814 Q 164.624 158.799 164.569 158.793 A 0.703 0.703 0 0 0 164.487 158.787 A 0.441 0.441 0 0 0 164.381 158.799 A 0.283 0.283 0 0 0 164.214 158.911 Q 164.133 159.022 164.126 159.256 A 1.543 1.543 0 0 0 164.125 159.305 L 164.125 159.445 L 164.674 159.445 Z M 163.145 160.376 L 163.145 160.583 L 161.658 160.583 A 1.312 1.312 0 0 0 161.681 160.803 Q 161.725 161.024 161.85 161.16 A 0.594 0.594 0 0 0 162.162 161.335 A 0.9 0.9 0 0 0 162.363 161.357 A 1.726 1.726 0 0 0 163.009 161.229 A 1.977 1.977 0 0 0 163.052 161.211 L 163.052 161.502 A 1.962 1.962 0 0 1 162.873 161.57 A 1.5 1.5 0 0 1 162.724 161.61 A 1.372 1.372 0 0 1 162.588 161.631 Q 162.481 161.642 162.351 161.642 Q 161.873 161.642 161.596 161.351 A 0.962 0.962 0 0 1 161.366 160.928 Q 161.319 160.754 161.319 160.542 Q 161.319 160.116 161.49 159.834 A 0.968 0.968 0 0 1 161.576 159.713 A 0.837 0.837 0 0 1 162.187 159.408 A 1.155 1.155 0 0 1 162.266 159.406 A 0.996 0.996 0 0 1 162.547 159.443 A 0.758 0.758 0 0 1 162.908 159.672 A 0.914 0.914 0 0 1 163.115 160.09 A 1.33 1.33 0 0 1 163.145 160.376 Z M 166.06 161.333 L 166.06 161.583 A 0.321 0.321 0 0 1 166.022 161.598 Q 165.981 161.612 165.923 161.622 A 1.222 1.222 0 0 1 165.904 161.625 Q 165.8 161.642 165.718 161.642 A 0.854 0.854 0 0 1 165.466 161.608 Q 165.092 161.493 165.092 160.983 L 165.092 159.699 L 164.783 159.699 L 164.783 159.542 L 165.092 159.406 L 165.229 158.945 L 165.418 158.945 L 165.418 159.445 L 166.044 159.445 L 166.044 159.699 L 165.418 159.699 L 165.418 160.969 A 0.658 0.658 0 0 0 165.428 161.084 Q 165.439 161.148 165.464 161.198 A 0.317 0.317 0 0 0 165.511 161.268 A 0.304 0.304 0 0 0 165.698 161.367 A 0.437 0.437 0 0 0 165.765 161.372 A 1.073 1.073 0 0 0 165.922 161.361 A 0.989 0.989 0 0 0 165.932 161.36 Q 166.009 161.347 166.056 161.334 A 0.493 0.493 0 0 0 166.06 161.333 Z M 160.747 158.539 L 160.747 161.603 L 160.42 161.603 L 160.42 158.539 L 160.747 158.539 Z M 161.666 160.317 L 162.794 160.317 A 1.114 1.114 0 0 0 162.781 160.138 Q 162.765 160.042 162.731 159.965 A 0.506 0.506 0 0 0 162.656 159.844 Q 162.518 159.679 162.263 159.679 A 0.644 0.644 0 0 0 162.076 159.705 A 0.498 0.498 0 0 0 161.848 159.849 A 0.646 0.646 0 0 0 161.72 160.065 Q 161.679 160.177 161.666 160.317 Z" id="left_labelLayer" stroke="#000000" fill="#000000" style="stroke:#000000;fill:#000000" vector-effect="non-scaling-stroke"/><path d="M 11.41 144.5 L 18.75 144.5 L 18.75 147 L 26.41 147 L 26.41 144.5 L 33.75 144.5 L 33.75 147 L 41.41 147 L 41.41 144.5 L 48.75 144.5 L 48.75 147 L 56.41 147 L 56.41 144.5 L 63.75 144.5 L 63.75 147 L 75.16 147 L 75.16 140.59 L 72.66 140.59 L 72.66 133.25 L 75.16 133.25 L 75.16 126.84 L 0 126.84 L 0 133.25 L 2.5 133.25 L 2.5 140.59 L 0 140.59 L 0 147 L 11.41 147 L 11.41 144.5 Z" id="back_outsideCutPath" stroke="#FF0000" stroke-width="0.1" style="stroke:#FF0000;stroke-width:0.1" vector-effect="non-scaling-stroke"/><path d="M 40.34 137.328 L 40.356 137.328 Q 40.441 137.207 40.614 137.013 L 41.311 136.274 L 41.699 136.274 L 40.825 137.194 L 41.76 138.432 L 41.364 138.432 L 40.602 137.412 L 40.356 137.625 L 40.356 138.432 L 40.033 138.432 L 40.033 135.369 L 40.356 135.369 L 40.356 136.993 A 2.178 2.178 0 0 1 40.355 137.054 Q 40.352 137.158 40.34 137.328 Z M 33.727 138.154 L 33.704 138.154 L 33.635 138.432 L 33.4 138.432 L 33.4 135.369 L 33.727 135.369 L 33.727 136.113 A 6.814 6.814 0 0 1 33.723 136.343 Q 33.72 136.459 33.711 136.562 L 33.727 136.562 A 0.743 0.743 0 0 1 34.27 136.247 A 1.116 1.116 0 0 1 34.404 136.239 A 0.999 0.999 0 0 1 34.686 136.276 A 0.748 0.748 0 0 1 35.065 136.529 A 0.963 0.963 0 0 1 35.234 136.854 Q 35.275 136.988 35.291 137.149 A 2.098 2.098 0 0 1 35.3 137.351 A 1.916 1.916 0 0 1 35.275 137.674 Q 35.245 137.845 35.182 137.983 A 0.919 0.919 0 0 1 35.063 138.177 A 0.774 0.774 0 0 1 34.513 138.466 A 1.108 1.108 0 0 1 34.404 138.471 A 0.991 0.991 0 0 1 34.155 138.441 A 0.863 0.863 0 0 1 34.02 138.394 Q 33.845 138.316 33.727 138.154 Z M 37.44 138.432 L 37.198 138.432 L 37.133 138.125 L 37.117 138.125 A 1.355 1.355 0 0 1 37.008 138.248 Q 36.949 138.306 36.89 138.346 A 0.602 0.602 0 0 1 36.795 138.399 Q 36.663 138.459 36.477 138.469 A 1.471 1.471 0 0 1 36.395 138.471 A 1.003 1.003 0 0 1 36.191 138.452 Q 36.066 138.426 35.97 138.366 A 0.563 0.563 0 0 1 35.892 138.306 A 0.537 0.537 0 0 1 35.73 138.023 A 0.822 0.822 0 0 1 35.71 137.835 A 0.565 0.565 0 0 1 36.031 137.302 Q 36.271 137.174 36.689 137.153 A 3.192 3.192 0 0 1 36.755 137.15 L 37.121 137.139 L 37.121 137.005 A 0.939 0.939 0 0 0 37.112 136.869 Q 37.09 136.716 37.012 136.63 Q 36.925 136.533 36.754 136.513 A 0.807 0.807 0 0 0 36.663 136.509 Q 36.446 136.509 36.183 136.615 A 2.189 2.189 0 0 0 36.052 136.674 L 35.952 136.424 A 1.507 1.507 0 0 1 36.243 136.304 A 1.715 1.715 0 0 1 36.301 136.288 A 1.514 1.514 0 0 1 36.682 136.239 Q 37.068 136.239 37.254 136.41 Q 37.44 136.581 37.44 136.959 L 37.44 138.432 Z M 39.553 136.347 L 39.452 136.625 A 1.454 1.454 0 0 0 39.295 136.572 A 1.737 1.737 0 0 0 39.216 136.553 A 1.35 1.35 0 0 0 39.113 136.534 Q 39.063 136.527 39.019 136.525 A 0.724 0.724 0 0 0 38.99 136.524 Q 38.406 136.524 38.34 137.186 A 1.806 1.806 0 0 0 38.332 137.363 A 1.583 1.583 0 0 0 38.348 137.593 Q 38.365 137.71 38.401 137.805 A 0.678 0.678 0 0 0 38.493 137.973 A 0.519 0.519 0 0 0 38.829 138.174 A 0.791 0.791 0 0 0 38.968 138.186 A 1.368 1.368 0 0 0 39.345 138.131 A 1.689 1.689 0 0 0 39.521 138.07 L 39.521 138.359 Q 39.335 138.456 39.066 138.469 A 1.792 1.792 0 0 1 38.976 138.471 A 1.221 1.221 0 0 1 38.679 138.437 A 0.828 0.828 0 0 1 38.25 138.183 A 0.945 0.945 0 0 1 38.054 137.822 Q 37.993 137.622 37.993 137.367 A 1.803 1.803 0 0 1 38.021 137.039 Q 38.079 136.729 38.254 136.53 A 0.846 0.846 0 0 1 38.718 136.264 A 1.283 1.283 0 0 1 38.997 136.235 Q 39.153 136.235 39.309 136.268 A 1.631 1.631 0 0 1 39.399 136.29 Q 39.49 136.316 39.551 136.346 A 0.501 0.501 0 0 1 39.553 136.347 Z M 34.001 136.594 A 0.435 0.435 0 0 0 33.875 136.704 A 0.559 0.559 0 0 0 33.794 136.859 Q 33.739 137.012 33.729 137.245 A 2.518 2.518 0 0 0 33.727 137.351 Q 33.727 137.737 33.837 137.937 A 0.493 0.493 0 0 0 33.879 138.002 A 0.474 0.474 0 0 0 34.119 138.164 Q 34.2 138.189 34.298 138.196 A 1.051 1.051 0 0 0 34.365 138.198 A 0.651 0.651 0 0 0 34.55 138.173 A 0.47 0.47 0 0 0 34.814 137.978 Q 34.919 137.821 34.95 137.567 A 1.873 1.873 0 0 0 34.962 137.347 Q 34.962 136.926 34.814 136.719 Q 34.666 136.512 34.357 136.512 Q 34.14 136.512 34.001 136.594 Z M 37.113 137.566 L 37.113 137.371 L 36.787 137.385 A 2.4 2.4 0 0 0 36.595 137.399 Q 36.406 137.421 36.287 137.473 A 0.502 0.502 0 0 0 36.225 137.506 A 0.349 0.349 0 0 0 36.058 137.759 A 0.516 0.516 0 0 0 36.052 137.839 Q 36.052 137.995 36.135 138.086 A 0.291 0.291 0 0 0 36.16 138.109 A 0.356 0.356 0 0 0 36.293 138.18 Q 36.346 138.196 36.409 138.2 A 0.735 0.735 0 0 0 36.46 138.202 A 0.9 0.9 0 0 0 36.654 138.182 Q 36.789 138.152 36.889 138.077 A 0.546 0.546 0 0 0 36.939 138.034 A 0.547 0.547 0 0 0 37.092 137.761 Q 37.113 137.673 37.113 137.569 A 1.049 1.049 0 0 0 37.113 137.566 Z" id="back_labelLayer" stroke="#000000" fill="#000000" style="stroke:#000000;fill:#000000" vector-effect="non-scaling-stroke"/><path d="M 92.07 144.5 L 99.41 144.5 L 99.41 147 L 107.07 147 L 107.07 144.5 L 114.41 144.5 L 114.41 147 L 122.07 147 L 122.07 144.5 L 129.41 144.5 L 129.41 147 L 137.07 147 L 137.07 144.5 L 144.41 144.5 L 144.41 147 L 152.07 147 L 152.07 144.5 L 159.41 144.5 L 159.41 147 L 167.07 147 L 167.07 144.5 L 174.41 144.5 L 174.41 147 L 182.07 147 L 182.07 144.5 L 189.41 144.5 L 189.41 147 L 197.07 147 L 197.07 144.5 L 204.41 144.5 L 204.41 147 L 212.07 147 L 212.07 144.5 L 219.41 144.5 L 219.41 147 L 227.07 147 L 227.07 144.5 L 234.41 144.5 L 234.41 147 L 245.82 147 L 245.82 140.75 L 248.32 140.75 L 248.32 133.09 L 245.82 133.09 L 245.82 126.84 L 80.66 126.84 L 80.66 133.09 L 78.16 133.09 L 78.16 140.75 L 80.66 140.75 L 80.66 147 L 92.07 147 L 92.07 144.5 Z" id="right_outsideCutPath" stroke="#FF0000" stroke-width="0.1" style="stroke:#FF0000;stroke-width:0.1" vector-effect="non-scaling-stroke"/><path d="M 165.747 137.967 L 165.42 137.967 L 165.42 136.572 A 0.924 0.924 0 0 0 165.41 136.427 Q 165.398 136.35 165.372 136.29 A 0.389 0.389 0 0 0 165.3 136.178 A 0.368 0.368 0 0 0 165.149 136.081 Q 165.09 136.06 165.017 136.053 A 0.866 0.866 0 0 0 164.924 136.048 Q 164.584 136.048 164.427 136.233 A 0.544 0.544 0 0 0 164.335 136.396 Q 164.279 136.546 164.272 136.769 A 2.109 2.109 0 0 0 164.271 136.839 L 164.271 137.967 L 163.944 137.967 L 163.944 134.904 L 164.271 134.904 L 164.271 135.831 A 2.94 2.94 0 0 1 164.269 135.944 Q 164.265 136.038 164.255 136.109 L 164.275 136.109 A 0.653 0.653 0 0 1 164.503 135.889 A 0.798 0.798 0 0 1 164.549 135.864 A 0.839 0.839 0 0 1 164.825 135.782 A 1.061 1.061 0 0 1 164.956 135.774 Q 165.216 135.774 165.391 135.856 A 0.589 0.589 0 0 1 165.549 135.962 A 0.569 0.569 0 0 1 165.69 136.183 Q 165.723 136.274 165.737 136.388 A 1.413 1.413 0 0 1 165.747 136.56 L 165.747 137.967 Z M 162.755 135.81 L 163.501 135.81 L 163.501 136.016 L 163.101 136.064 Q 163.148 136.122 163.186 136.21 A 1.007 1.007 0 0 1 163.2 136.244 A 0.629 0.629 0 0 1 163.237 136.394 A 0.807 0.807 0 0 1 163.243 136.495 A 0.749 0.749 0 0 1 163.209 136.727 A 0.606 0.606 0 0 1 163.026 137.001 A 0.725 0.725 0 0 1 162.741 137.151 Q 162.633 137.181 162.505 137.188 A 1.42 1.42 0 0 1 162.432 137.19 A 1.05 1.05 0 0 1 162.31 137.183 A 0.887 0.887 0 0 1 162.251 137.174 Q 162.132 137.237 162.08 137.318 A 0.246 0.246 0 0 0 162.042 137.452 A 0.169 0.169 0 0 0 162.051 137.507 Q 162.067 137.555 162.115 137.582 A 0.229 0.229 0 0 0 162.166 137.603 Q 162.219 137.619 162.3 137.623 A 1.243 1.243 0 0 0 162.365 137.625 L 162.747 137.625 A 1.338 1.338 0 0 1 162.95 137.639 Q 163.056 137.656 163.142 137.69 A 0.591 0.591 0 0 1 163.285 137.772 A 0.478 0.478 0 0 1 163.463 138.077 A 0.718 0.718 0 0 1 163.473 138.202 A 0.708 0.708 0 0 1 163.433 138.446 Q 163.368 138.625 163.197 138.741 A 0.776 0.776 0 0 1 163.186 138.748 A 0.98 0.98 0 0 1 162.933 138.863 Q 162.692 138.936 162.347 138.936 A 1.831 1.831 0 0 1 162.102 138.921 Q 161.852 138.887 161.695 138.778 Q 161.465 138.621 161.465 138.334 Q 161.465 138.137 161.591 137.993 A 0.571 0.571 0 0 1 161.787 137.85 A 0.809 0.809 0 0 1 161.946 137.798 Q 161.863 137.761 161.807 137.682 A 0.303 0.303 0 0 1 161.751 137.518 A 0.375 0.375 0 0 1 161.751 137.499 Q 161.751 137.381 161.814 137.292 A 0.468 0.468 0 0 1 161.875 137.222 Q 161.931 137.171 162.012 137.121 Q 161.845 137.052 161.74 136.887 A 0.676 0.676 0 0 1 161.636 136.561 A 0.824 0.824 0 0 1 161.634 136.509 A 0.944 0.944 0 0 1 161.659 136.285 A 0.621 0.621 0 0 1 161.847 135.962 A 0.694 0.694 0 0 1 162.113 135.815 Q 162.261 135.77 162.45 135.77 Q 162.619 135.77 162.755 135.81 Z M 167.411 137.698 L 167.411 137.948 A 0.321 0.321 0 0 1 167.373 137.963 Q 167.332 137.976 167.274 137.987 A 1.222 1.222 0 0 1 167.254 137.99 Q 167.151 138.007 167.068 138.007 A 0.854 0.854 0 0 1 166.817 137.973 Q 166.442 137.857 166.442 137.347 L 166.442 136.064 L 166.133 136.064 L 166.133 135.906 L 166.442 135.77 L 166.58 135.31 L 166.769 135.31 L 166.769 135.81 L 167.395 135.81 L 167.395 136.064 L 166.769 136.064 L 166.769 137.333 A 0.658 0.658 0 0 0 166.778 137.449 Q 166.79 137.512 166.815 137.563 A 0.317 0.317 0 0 0 166.862 137.633 A 0.304 0.304 0 0 0 167.048 137.732 A 0.437 0.437 0 0 0 167.115 137.737 A 1.073 1.073 0 0 0 167.273 137.726 A 0.989 0.989 0 0 0 167.283 137.724 Q 167.36 137.712 167.406 137.699 A 0.493 0.493 0 0 0 167.411 137.698 Z M 160.311 135.794 L 160.266 136.097 A 1.44 1.44 0 0 0 160.163 136.078 Q 160.111 136.07 160.065 136.068 A 0.766 0.766 0 0 0 160.03 136.068 A 0.566 0.566 0 0 0 159.612 136.248 A 0.775 0.775 0 0 0 159.582 136.28 A 0.746 0.746 0 0 0 159.402 136.699 A 0.992 0.992 0 0 0 159.396 136.81 L 159.396 137.967 L 159.069 137.967 L 159.069 135.81 L 159.339 135.81 L 159.376 136.209 L 159.392 136.209 A 1.104 1.104 0 0 1 159.515 136.033 A 0.843 0.843 0 0 1 159.681 135.884 Q 159.851 135.77 160.054 135.77 A 1.5 1.5 0 0 1 160.188 135.776 A 1.095 1.095 0 0 1 160.311 135.794 Z M 161.042 135.81 L 161.042 137.967 L 160.715 137.967 L 160.715 135.81 L 161.042 135.81 Z M 162.642 137.918 L 162.251 137.918 Q 162.028 137.918 161.904 138.024 Q 161.78 138.131 161.78 138.33 A 0.328 0.328 0 0 0 161.802 138.451 Q 161.837 138.54 161.928 138.595 A 0.523 0.523 0 0 0 162.057 138.651 Q 162.178 138.686 162.348 138.686 A 1.805 1.805 0 0 0 162.351 138.686 A 2.197 2.197 0 0 0 162.566 138.676 Q 162.818 138.651 162.96 138.563 A 0.477 0.477 0 0 0 163.071 138.47 A 0.357 0.357 0 0 0 163.158 138.229 A 0.442 0.442 0 0 0 163.15 138.141 Q 163.14 138.091 163.117 138.053 A 0.206 0.206 0 0 0 163.05 137.986 Q 162.968 137.934 162.774 137.922 A 2.079 2.079 0 0 0 162.642 137.918 Z M 161.957 136.501 Q 161.957 136.727 162.085 136.843 A 0.422 0.422 0 0 0 162.255 136.936 Q 162.32 136.954 162.397 136.958 A 0.841 0.841 0 0 0 162.442 136.959 Q 162.819 136.959 162.899 136.67 A 0.662 0.662 0 0 0 162.92 136.495 Q 162.92 136.109 162.615 136.029 A 0.711 0.711 0 0 0 162.436 136.008 A 0.686 0.686 0 0 0 162.296 136.022 Q 162.21 136.04 162.145 136.081 A 0.376 0.376 0 0 0 162.081 136.132 Q 161.957 136.257 161.957 136.501 Z M 160.692 135.165 A 0.362 0.362 0 0 0 160.688 135.225 Q 160.688 135.28 160.702 135.322 A 0.169 0.169 0 0 0 160.743 135.389 A 0.183 0.183 0 0 0 160.809 135.432 A 0.208 0.208 0 0 0 160.88 135.443 Q 160.959 135.443 161.016 135.389 Q 161.056 135.352 161.068 135.287 A 0.338 0.338 0 0 0 161.073 135.225 A 0.374 0.374 0 0 0 161.072 135.189 Q 161.069 135.157 161.06 135.131 A 0.165 0.165 0 0 0 161.016 135.061 Q 160.959 135.008 160.88 135.008 A 0.25 0.25 0 0 0 160.864 135.009 A 0.189 0.189 0 0 0 160.743 135.061 A 0.153 0.153 0 0 0 160.709 135.108 Q 160.697 135.133 160.692 135.165 Z" id="right_labelLayer" stroke="#000000" fill="#000000" style="stroke:#000000;fill:#000000" vector-effect="non-scaling-stroke"/><path d="M 270.23 167.66 L 277.57 167.66 L 277.57 170.16 L 285.23 170.16 L 285.23 167.66 L 292.57 167.66 L 292.57 170.16 L 300.23 170.16 L 300.23 167.66 L 307.57 167.66 L 307.57 170.16 L 315.23 170.16 L 315.23 167.66 L 323.98 167.66 L 323.98 156.41 L 326.48 156.41 L 326.48 148.75 L 323.98 148.75 L 323.98 141.41 L 326.48 141.41 L 326.48 133.75 L 323.98 133.75 L 323.98 126.41 L 326.48 126.41 L 326.48 118.75 L 323.98 118.75 L 323.98 111.41 L 326.48 111.41 L 326.48 103.75 L 323.98 103.75 L 323.98 96.41 L 326.48 96.41 L 326.48 88.75 L 323.98 88.75 L 323.98 81.41 L 326.48 81.41 L 326.48 73.75 L 323.98 73.75 L 323.98 66.41 L 326.48 66.41 L 326.48 58.75 L 323.98 58.75 L 323.98 51.41 L 326.48 51.41 L 326.48 43.75 L 323.98 43.75 L 323.98 36.41 L 326.48 36.41 L 326.48 28.75 L 323.98 28.75 L 323.98 21.41 L 326.48 21.41 L 326.48 13.75 L 323.98 13.75 L 323.98 2.5 L 315.23 2.5 L 315.23 0 L 307.57 0 L 307.57 2.5 L 300.23 2.5 L 300.23 0 L 292.57 0 L 292.57 2.5 L 285.23 2.5 L 285.23 0 L 277.57 0 L 277.57 2.5 L 270.23 2.5 L 270.23 0 L 262.57 0 L 262.57 2.5 L 253.82 2.5 L 253.82 13.75 L 251.32 13.75 L 251.32 21.41 L 253.82 21.41 L 253.82 28.75 L 251.32 28.75 L 251.32 36.41 L 253.82 36.41 L 253.82 43.75 L 251.32 43.75 L 251.32 51.41 L 253.82 51.41 L 253.82 58.75 L 251.32 58.75 L 251.32 66.41 L 253.82 66.41 L 253.82 73.75 L 251.32 73.75 L 251.32 81.41 L 253.82 81.41 L 253.82 88.75 L 251.32 88.75 L 251.32 96.41 L 253.82 96.41 L 253.82 103.75 L 251.32 103.75 L 251.32 111.41 L 253.82 111.41 L 253.82 118.75 L 251.32 118.75 L 251.32 126.41 L 253.82 126.41 L 253.82 133.75 L 251.32 133.75 L 251.32 141.41 L 253.82 141.41 L 253.82 148.75 L 251.32 148.75 L 251.32 156.41 L 253.82 156.41 L 253.82 167.66 L 262.57 167.66 L 262.57 170.16 L 270.23 170.16 L 270.23 167.66 Z" id="bottom_outsideCutPath" stroke="#FF0000" stroke-width="0.1" style="stroke:#FF0000;stroke-width:0.1" vector-effect="non-scaling-stroke"/><path d="M 313.628 90.717 L 312.409 90.717 L 312.409 85.484 A 3.594 3.594 0 0 0 312.373 84.955 Q 312.287 84.379 311.998 84.041 Q 311.639 83.621 310.931 83.568 A 2.828 2.828 0 0 0 310.721 83.56 A 3.135 3.135 0 0 0 310.083 83.621 Q 309.418 83.759 309.04 84.214 A 2.013 2.013 0 0 0 308.699 84.832 Q 308.499 85.393 308.497 86.212 A 6.738 6.738 0 0 0 308.497 86.225 L 308.497 90.717 L 307.279 90.717 L 307.279 85.484 A 3.594 3.594 0 0 0 307.243 84.955 Q 307.157 84.379 306.868 84.041 A 1.278 1.278 0 0 0 306.28 83.659 Q 305.979 83.56 305.583 83.56 A 3.026 3.026 0 0 0 304.958 83.621 Q 304.571 83.703 304.284 83.895 A 1.597 1.597 0 0 0 303.906 84.247 A 2.043 2.043 0 0 0 303.603 84.822 Q 303.407 85.378 303.379 86.211 A 8.483 8.483 0 0 0 303.374 86.496 L 303.374 90.717 L 302.156 90.717 L 302.156 82.672 L 303.147 82.672 L 303.345 83.773 L 303.403 83.773 Q 303.748 83.186 304.376 82.856 A 2.893 2.893 0 0 1 305.519 82.535 A 3.494 3.494 0 0 1 305.782 82.526 A 3.989 3.989 0 0 1 306.679 82.619 Q 307.232 82.747 307.617 83.049 A 2.08 2.08 0 0 1 308.248 83.891 L 308.307 83.891 A 2.544 2.544 0 0 1 309.265 82.939 A 3.056 3.056 0 0 1 309.349 82.893 Q 310.031 82.526 310.905 82.526 A 4.235 4.235 0 0 1 311.673 82.591 Q 312.477 82.739 312.949 83.226 A 2.098 2.098 0 0 1 313.399 83.963 Q 313.521 84.288 313.578 84.693 A 5.588 5.588 0 0 1 313.628 85.469 L 313.628 90.717 Z M 265.39 89.682 L 265.302 89.682 L 265.045 90.717 L 264.172 90.717 L 264.172 79.296 L 265.39 79.296 L 265.39 82.07 A 25.403 25.403 0 0 1 265.377 82.929 Q 265.362 83.362 265.332 83.744 L 265.39 83.744 A 2.77 2.77 0 0 1 267.412 82.57 A 4.161 4.161 0 0 1 267.915 82.54 A 3.724 3.724 0 0 1 268.963 82.68 A 2.788 2.788 0 0 1 270.378 83.623 A 3.59 3.59 0 0 1 271.007 84.835 Q 271.162 85.335 271.22 85.933 A 7.821 7.821 0 0 1 271.255 86.687 A 7.144 7.144 0 0 1 271.16 87.889 Q 270.966 89.028 270.371 89.766 A 2.884 2.884 0 0 1 268.32 90.844 A 4.132 4.132 0 0 1 267.915 90.864 A 3.696 3.696 0 0 1 266.987 90.75 A 3.216 3.216 0 0 1 266.48 90.574 Q 265.831 90.284 265.39 89.682 Z M 286.162 89.711 L 286.162 90.643 A 1.198 1.198 0 0 1 286.02 90.7 Q 285.868 90.75 285.651 90.789 A 4.556 4.556 0 0 1 285.579 90.801 A 5.281 5.281 0 0 1 285.234 90.846 Q 285.072 90.861 284.926 90.863 A 3.122 3.122 0 0 1 284.885 90.864 A 3.182 3.182 0 0 1 283.947 90.737 Q 282.916 90.419 282.647 89.299 A 3.83 3.83 0 0 1 282.551 88.405 L 282.551 83.619 L 281.399 83.619 L 281.399 83.032 L 282.551 82.526 L 283.065 80.808 L 283.769 80.808 L 283.769 82.672 L 286.103 82.672 L 286.103 83.619 L 283.769 83.619 L 283.769 88.353 Q 283.769 89.08 284.114 89.469 A 1.132 1.132 0 0 0 284.81 89.839 A 1.629 1.629 0 0 0 285.061 89.858 Q 285.384 89.858 285.685 89.81 A 6.591 6.591 0 0 0 285.861 89.78 Q 286.041 89.747 286.162 89.711 Z M 291.469 89.711 L 291.469 90.643 A 1.198 1.198 0 0 1 291.327 90.7 Q 291.175 90.75 290.958 90.789 A 4.556 4.556 0 0 1 290.885 90.801 A 5.281 5.281 0 0 1 290.541 90.846 Q 290.379 90.861 290.233 90.863 A 3.122 3.122 0 0 1 290.192 90.864 A 3.182 3.182 0 0 1 289.254 90.737 Q 288.223 90.419 287.953 89.299 A 3.83 3.83 0 0 1 287.858 88.405 L 287.858 83.619 L 286.705 83.619 L 286.705 83.032 L 287.858 82.526 L 288.371 80.808 L 289.076 80.808 L 289.076 82.672 L 291.41 82.672 L 291.41 83.619 L 289.076 83.619 L 289.076 88.353 Q 289.076 89.08 289.421 89.469 A 1.132 1.132 0 0 0 290.117 89.839 A 1.629 1.629 0 0 0 290.368 89.858 Q 290.691 89.858 290.992 89.81 A 6.591 6.591 0 0 0 291.168 89.78 Q 291.348 89.747 291.469 89.711 Z M 280.327 86.687 Q 280.327 88.654 279.336 89.759 A 3.248 3.248 0 0 1 277.425 90.795 A 4.731 4.731 0 0 1 276.598 90.864 A 3.913 3.913 0 0 1 275.461 90.703 A 3.393 3.393 0 0 1 274.683 90.357 Q 273.846 89.851 273.391 88.904 A 4.507 4.507 0 0 1 273.012 87.675 A 6.095 6.095 0 0 1 272.936 86.687 A 6.326 6.326 0 0 1 273.047 85.464 Q 273.187 84.751 273.506 84.196 A 3.366 3.366 0 0 1 273.919 83.623 A 3.223 3.223 0 0 1 275.8 82.598 A 4.732 4.732 0 0 1 276.65 82.526 A 4.094 4.094 0 0 1 277.852 82.693 A 3.19 3.19 0 0 1 279.332 83.649 A 3.794 3.794 0 0 1 280.161 85.255 Q 280.327 85.905 280.327 86.687 Z M 300.02 86.687 Q 300.02 88.654 299.029 89.759 A 3.248 3.248 0 0 1 297.117 90.795 A 4.731 4.731 0 0 1 296.291 90.864 A 3.913 3.913 0 0 1 295.154 90.703 A 3.393 3.393 0 0 1 294.375 90.357 Q 293.539 89.851 293.084 88.904 A 4.507 4.507 0 0 1 292.705 87.675 A 6.095 6.095 0 0 1 292.629 86.687 A 6.326 6.326 0 0 1 292.74 85.464 Q 292.88 84.751 293.199 84.196 A 3.366 3.366 0 0 1 293.612 83.623 A 3.223 3.223 0 0 1 295.493 82.598 A 4.732 4.732 0 0 1 296.343 82.526 A 4.094 4.094 0 0 1 297.545 82.693 A 3.19 3.19 0 0 1 299.025 83.649 A 3.794 3.794 0 0 1 299.854 85.255 Q 300.02 85.905 300.02 86.687 Z M 274.198 86.687 Q 274.198 88.229 274.815 89.036 A 1.997 1.997 0 0 0 276.115 89.802 A 3.026 3.026 0 0 0 276.628 89.843 A 2.83 2.83 0 0 0 277.374 89.751 A 1.97 1.97 0 0 0 278.444 89.04 Q 279.065 88.236 279.065 86.687 A 6.079 6.079 0 0 0 279.007 85.821 Q 278.876 84.911 278.444 84.357 A 2.004 2.004 0 0 0 277.198 83.613 A 3.073 3.073 0 0 0 276.613 83.56 A 2.9 2.9 0 0 0 275.891 83.645 A 1.941 1.941 0 0 0 274.807 84.346 A 2.519 2.519 0 0 0 274.416 85.103 Q 274.3 85.45 274.246 85.876 A 6.438 6.438 0 0 0 274.198 86.687 Z M 293.891 86.687 Q 293.891 88.229 294.508 89.036 A 1.997 1.997 0 0 0 295.808 89.802 A 3.026 3.026 0 0 0 296.321 89.843 A 2.83 2.83 0 0 0 297.067 89.751 A 1.97 1.97 0 0 0 298.137 89.04 Q 298.757 88.236 298.757 86.687 A 6.079 6.079 0 0 0 298.7 85.821 Q 298.568 84.911 298.137 84.357 A 2.004 2.004 0 0 0 296.891 83.613 A 3.073 3.073 0 0 0 296.306 83.56 A 2.9 2.9 0 0 0 295.584 83.645 A 1.941 1.941 0 0 0 294.5 84.346 A 2.519 2.519 0 0 0 294.109 85.103 Q 293.993 85.45 293.939 85.876 A 6.438 6.438 0 0 0 293.891 86.687 Z M 267.739 83.56 A 3.424 3.424 0 0 0 267.076 83.62 Q 266.332 83.767 265.941 84.276 A 2.086 2.086 0 0 0 265.639 84.851 Q 265.435 85.422 265.399 86.29 A 9.387 9.387 0 0 0 265.39 86.687 A 8.056 8.056 0 0 0 265.43 87.52 Q 265.541 88.577 265.956 89.113 A 1.768 1.768 0 0 0 266.852 89.718 Q 267.152 89.812 267.518 89.836 A 3.918 3.918 0 0 0 267.769 89.843 A 2.429 2.429 0 0 0 268.458 89.751 A 1.752 1.752 0 0 0 269.442 89.025 Q 269.835 88.44 269.948 87.491 A 6.981 6.981 0 0 0 269.993 86.673 A 7.199 7.199 0 0 0 269.949 85.852 Q 269.846 84.955 269.498 84.414 A 2.021 2.021 0 0 0 269.442 84.331 A 1.777 1.777 0 0 0 268.311 83.615 A 2.818 2.818 0 0 0 267.739 83.56 Z" id="bottom_labelLayer" stroke="#000000" fill="#000000" style="stroke:#000000;fill:#000000" vector-effect="non-scaling-stroke"/></g></svg>