<svg width="356.48mm" height="150.16mm" viewBox="0 0 356.48 150.16" xmlns="http://www.w3.org/2000/svg" version="1.1" preserveAspectRatio="xMidYMid meet"><g id="svgGroup" stroke-linecap="round" fill-rule="evenodd" font-size="9pt" stroke="#000" stroke-width="0.25mm" fill="none" style="stroke:#000;stroke-width:0.25mm;fill:none"><path d="M 8.91 147.66 L 16.25 147.66 L 16.25 150.16 L 23.91 150.16 L 23.91 147.66 L 31.25 147.66 L 31.25 150.16 L 38.91 150.16 L 38.91 147.66 L 46.25 147.66 L 46.25 150.16 L 53.91 150.16 L 53.91 147.66 L 61.25 147.66 L 61.25 150.16 L 68.91 150.16 L 68.91 147.66 L 76.25 147.66 L 76.25 150.16 L 83.91 150.16 L 83.91 147.66 L 91.25 147.66 L 91.25 150.16 L 100.16 150.16 L 100.16 143.75 L 97.66 143.75 L 97.66 136.41 L 100.16 136.41 L 100.16 130 L 0 130 L 0 136.41 L 2.5 136.41 L 2.5 143.75 L 0 143.75 L 0 150.16 L 8.91 150.16 L 8.91 147.66 Z" id="front_outsideCutPath" stroke="#FF0000" stroke-width="0.1" style="stroke:#FF0000;stroke-width:0.1" vector-effect="non-scaling-stroke"/><path d="M 114.57 147.66 L 121.91 147.66 L 121.91 150.16 L 129.57 150.16 L 129.57 147.66 L 136.91 147.66 L 136.91 150.16 L 144.57 150.16 L 144.57 147.66 L 151.91 147.66 L 151.91 150.16 L 159.57 150.16 L 159.57 147.66 L 166.91 147.66 L 166.91 150.16 L 174.57 150.16 L 174.57 147.66 L 181.91 147.66 L 181.91 150.16 L 189.57 150.16 L 189.57 147.66 L 196.91 147.66 L 196.91 150.16 L 204.57 150.16 L 204.57 147.66 L 211.91 147.66 L 211.91 150.16 L 219.57 150.16 L 219.57 147.66 L 226.91 147.66 L 226.91 150.16 L 234.57 150.16 L 234.57 147.66 L 241.91 147.66 L 241.91 150.16 L 250.82 150.16 L 250.82 143.91 L 253.32 143.91 L 253.32 136.25 L 250.82 136.25 L 250.82 130 L 105.66 130 L 105.66 136.25 L 103.16 136.25 L 103.16 143.91 L 105.66 143.91 L 105.66 150.16 L 114.57 150.16 L 114.57 147.66 Z" id="left_outsideCutPath" stroke="#FF0000" stroke-width="0.1" style="stroke:#FF0000;stroke-width:0.1" vector-effect="non-scaling-stroke"/><path d="M 8.91 124.5 L 16.25 124.5 L 16.25 127 L 23.91 127 L 23.91 124.5 L 31.25 124.5 L 31.25 127 L 38.91 127 L 38.91 124.5 L 46.25 124.5 L 46.25 127 L 53.91 127 L 53.91 124.5 L 61.25 124.5 L 61.25 127 L 68.91 127 L 68.91 124.5 L 76.25 124.5 L 76.25 127 L 83.91 127 L 83.91 124.5 L 91.25 124.5 L 91.25 127 L 100.16 127 L 100.16 120.59 L 97.66 120.59 L 97.66 113.25 L 100.16 113.25 L 100.16 106.84 L 0 106.84 L 0 113.25 L 2.5 113.25 L 2.5 120.59 L 0 120.59 L 0 127 L 8.91 127 L 8.91 124.5 Z" id="back_outsideCutPath" stroke="#FF0000" stroke-width="0.1" style="stroke:#FF0000;stroke-width:0.1" vector-effect="non-scaling-stroke"/><path d="M 114.57 124.5 L 121.91 124.5 L 121.91 127 L 129.57 127 L 129.57 124.5 L 136.91 124.5 L 136.91 127 L 144.57 127 L 144.57 124.5 L 151.91 124.5 L 151.91 127 L 159.57 127 L 159.57 124.5 L 166.91 124.5 L 166.91 127 L 174.57 127 L 174.57 124.5 L 181.91 124.5 L 181.91 127 L 189.57 127 L 189.57 124.5 L 196.91 124.5 L 196.91 127 L 204.57 127 L 204.57 124.5 L 211.91 124.5 L 211.91 127 L 219.57 127 L 219.57 124.5 L 226.91 124.5 L 226.91 127 L 234.57 127 L 234.57 124.5 L 241.91 124.5 L 241.91 127 L 250.82 127 L 250.82 120.75 L 253.32 120.75 L 253.32 113.09 L 250.82 113.09 L 250.82 106.84 L 105.66 106.84 L 105.66 113.09 L 103.16 113.09 L 103.16 120.75 L 105.66 120.75 L 105.66 127 L 114.57 127 L 114.57 124.5 Z" id="right_outsideCutPath" stroke="#FF0000" stroke-width="0.1" style="stroke:#FF0000;stroke-width:0.1" vector-effect="non-scaling-stroke"/><path d="M 272.73 147.66 L 280.07 147.66 L 280.07 150.16 L 287.73 150.16 L 287.73 147.66 L 295.07 147.66 L 295.07 150.16 L 302.73 150.16 L 302.73 147.66 L 310.07 147.66 L 310.07 150.16 L 317.73 150.16 L 317.73 147.66 L 325.07 147.66 L 325.07 150.16 L 332.73 150.16 L 332.73 147.66 L 340.07 147.66 L 340.07 150.16 L 347.73 150.16 L 347.73 147.66 L 353.98 147.66 L 353.98 138.91 L 356.48 138.91 L 356.48 131.25 L 353.98 131.25 L 353.98 123.91 L 356.48 123.91 L 356.48 116.25 L 353.98 116.25 L 353.98 108.91 L 356.48 108.91 L 356.48 101.25 L 353.98 101.25 L 353.98 93.91 L 356.48 93.91 L 356.48 86.25 L 353.98 86.25 L 353.98 78.91 L 356.48 78.91 L 356.48 71.25 L 353.98 71.25 L 353.98 63.91 L 356.48 63.91 L 356.48 56.25 L 353.98 56.25 L 353.98 48.91 L 356.48 48.91 L 356.48 41.25 L 353.98 41.25 L 353.98 33.91 L 356.48 33.91 L 356.48 26.25 L 353.98 26.25 L 353.98 18.91 L 356.48 18.91 L 356.48 11.25 L 353.98 11.25 L 353.98 2.5 L 347.73 2.5 L 347.73 0 L 340.07 0 L 340.07 2.5 L 332.73 2.5 L 332.73 0 L 325.07 0 L 325.07 2.5 L 317.73 2.5 L 317.73 0 L 310.07 0 L 310.07 2.5 L 302.73 2.5 L 302.73 0 L 295.07 0 L 295.07 2.5 L 287.73 2.5 L 287.73 0 L 280.07 0 L 280.07 2.5 L 272.73 2.5 L 272.73 0 L 265.07 0 L 265.07 2.5 L 258.82 2.5 L 258.82 11.25 L 256.32 11.25 L 256.32 18.91 L 258.82 18.91 L 258.82 26.25 L 256.32 26.25 L 256.32 33.91 L 258.82 33.91 L 258.82 41.25 L 256.32 41.25 L 256.32 48.91 L 258.82 48.91 L 258.82 56.25 L 256.32 56.25 L 256.32 63.91 L 258.82 63.91 L 258.82 71.25 L 256.32 71.25 L 256.32 78.91 L 258.82 78.91 L 258.82 86.25 L 256.32 86.25 L 256.32 93.91 L 258.82 93.91 L 258.82 101.25 L 256.32 101.25 L 256.32 108.91 L 258.82 108.91 L 258.82 116.25 L 256.32 116.25 L 256.32 123.91 L 258.82 123.91 L 258.82 131.25 L 256.32 131.25 L 256.32 138.91 L 258.82 138.91 L 258.82 147.66 L 265.07 147.66 L 265.07 150.16 L 272.73 150.16 L 272.73 147.66 Z" id="bottom_outsideCutPath" stroke="#FF0000" stroke-width="0.1" style="stroke:#FF0000;stroke-width:0.1" vector-effect="non-scaling-stroke"/></g></svg>