<svg width="356.48mm" height="150.16mm" viewBox="0 0 356.48 150.16" xmlns="http://www.w3.org/2000/svg" version="1.1" preserveAspectRatio="xMidYMid meet"><g id="svgGroup" stroke-linecap="round" fill-rule="evenodd" font-size="9pt" stroke="#000" stroke-width="0.25mm" fill="none" style="stroke:#000;stroke-width:0.25mm;fill:none"><path d="M 8.91 147.66 L 16.25 147.66 L 16.25 150.16 L 23.91 150.16 L 23.91 147.66 L 31.25 147.66 L 31.25 150.16 L 38.91 150.16 L 38.91 147.66 L 46.25 147.66 L 46.25 150.16 L 53.91 150.16 L 53.91 147.66 L 61.25 147.66 L 61.25 150.16 L 68.91 150.16 L 68.91 147.66 L 76.25 147.66 L 76.25 150.16 L 83.91 150.16 L 83.91 147.66 L 91.25 147.66 L 91.25 150.16 L 100.16 150.16 L 100.16 143.75 L 97.66 143.75 L 97.66 136.41 L 100.16 136.41 L 100.16 130 L 0 130 L 0 136.41 L 2.5 136.41 L 2.5 143.75 L 0 143.75 L 0 150.16 L 8.91 150.16 L 8.91 147.66 Z" id="front_outsideCutPath" stroke="#FF0000" stroke-width="0.1" style="stroke:#FF0000;stroke-width:0.1" vector-effect="non-scaling-stroke"/><path d="M 53.018 141.603 L 52.692 141.603 L 52.692 140.207 A 0.924 0.924 0 0 0 52.681 140.062 Q 52.669 139.986 52.643 139.925 A 0.389 0.389 0 0 0 52.571 139.813 A 0.368 0.368 0 0 0 52.42 139.717 Q 52.361 139.696 52.288 139.688 A 0.866 0.866 0 0 0 52.195 139.683 A 0.989 0.989 0 0 0 52.01 139.699 Q 51.907 139.719 51.828 139.763 A 0.461 0.461 0 0 0 51.699 139.866 A 0.534 0.534 0 0 0 51.606 140.029 Q 51.551 140.178 51.543 140.4 A 2.094 2.094 0 0 0 51.542 140.471 L 51.542 141.603 L 51.215 141.603 L 51.215 139.445 L 51.481 139.445 L 51.534 139.74 L 51.55 139.74 A 0.662 0.662 0 0 1 51.809 139.505 A 0.796 0.796 0 0 1 51.831 139.493 A 0.885 0.885 0 0 1 52.146 139.409 A 1.07 1.07 0 0 1 52.235 139.406 Q 52.493 139.406 52.667 139.488 A 0.587 0.587 0 0 1 52.821 139.594 Q 52.971 139.737 53.007 140.01 A 1.426 1.426 0 0 1 53.018 140.195 L 53.018 141.603 Z M 46.74 139.445 L 46.74 139.699 L 46.191 139.699 L 46.191 141.603 L 45.864 141.603 L 45.864 139.699 L 45.478 139.699 L 45.478 139.551 L 45.864 139.433 L 45.864 139.313 Q 45.864 138.627 46.382 138.533 A 0.993 0.993 0 0 1 46.559 138.518 A 1.052 1.052 0 0 1 46.708 138.529 Q 46.78 138.54 46.861 138.559 A 2.116 2.116 0 0 1 46.961 138.587 L 46.876 138.849 A 1.587 1.587 0 0 0 46.752 138.814 Q 46.69 138.799 46.635 138.793 A 0.703 0.703 0 0 0 46.553 138.787 A 0.441 0.441 0 0 0 46.447 138.799 A 0.283 0.283 0 0 0 46.279 138.911 Q 46.199 139.022 46.191 139.256 A 1.543 1.543 0 0 0 46.191 139.305 L 46.191 139.445 L 46.74 139.445 Z M 54.682 141.333 L 54.682 141.583 A 0.321 0.321 0 0 1 54.644 141.598 Q 54.603 141.612 54.545 141.622 A 1.222 1.222 0 0 1 54.525 141.625 Q 54.422 141.642 54.339 141.642 A 0.854 0.854 0 0 1 54.088 141.608 Q 53.713 141.493 53.713 140.983 L 53.713 139.699 L 53.404 139.699 L 53.404 139.542 L 53.713 139.406 L 53.851 138.945 L 54.04 138.945 L 54.04 139.445 L 54.666 139.445 L 54.666 139.699 L 54.04 139.699 L 54.04 140.969 A 0.658 0.658 0 0 0 54.05 141.084 Q 54.061 141.148 54.086 141.198 A 0.317 0.317 0 0 0 54.133 141.268 A 0.304 0.304 0 0 0 54.319 141.367 A 0.437 0.437 0 0 0 54.387 141.372 A 1.073 1.073 0 0 0 54.544 141.361 A 0.989 0.989 0 0 0 54.554 141.36 Q 54.631 141.347 54.678 141.334 A 0.493 0.493 0 0 0 54.682 141.333 Z M 48.376 139.429 L 48.331 139.732 A 1.44 1.44 0 0 0 48.227 139.713 Q 48.176 139.706 48.13 139.704 A 0.766 0.766 0 0 0 48.095 139.703 A 0.566 0.566 0 0 0 47.676 139.884 A 0.775 0.775 0 0 0 47.647 139.916 A 0.746 0.746 0 0 0 47.467 140.335 A 0.992 0.992 0 0 0 47.461 140.445 L 47.461 141.603 L 47.134 141.603 L 47.134 139.445 L 47.403 139.445 L 47.441 139.845 L 47.457 139.845 A 1.104 1.104 0 0 1 47.58 139.668 A 0.843 0.843 0 0 1 47.746 139.52 Q 47.915 139.406 48.118 139.406 A 1.5 1.5 0 0 1 48.252 139.411 A 1.095 1.095 0 0 1 48.376 139.429 Z M 50.612 140.85 A 1.688 1.688 0 0 0 50.642 140.522 Q 50.642 140.312 50.598 140.138 A 1.018 1.018 0 0 0 50.375 139.707 A 0.856 0.856 0 0 0 49.978 139.451 A 1.098 1.098 0 0 0 49.656 139.406 A 1.269 1.269 0 0 0 49.428 139.425 A 0.864 0.864 0 0 0 48.923 139.7 Q 48.748 139.895 48.689 140.194 A 1.697 1.697 0 0 0 48.66 140.522 Q 48.66 140.863 48.782 141.117 A 1.074 1.074 0 0 0 48.805 141.163 A 0.885 0.885 0 0 0 49.128 141.506 Q 49.353 141.642 49.642 141.642 A 1.269 1.269 0 0 0 49.864 141.624 A 0.871 0.871 0 0 0 50.376 141.346 A 0.912 0.912 0 0 0 50.485 141.197 Q 50.573 141.045 50.612 140.85 Z M 48.998 140.522 A 1.655 1.655 0 0 0 49.014 140.758 Q 49.049 141.002 49.164 141.152 A 0.536 0.536 0 0 0 49.512 141.357 A 0.812 0.812 0 0 0 49.65 141.369 A 0.759 0.759 0 0 0 49.85 141.344 A 0.528 0.528 0 0 0 50.137 141.153 A 0.702 0.702 0 0 0 50.246 140.94 Q 50.278 140.842 50.293 140.722 A 1.721 1.721 0 0 0 50.303 140.522 A 1.631 1.631 0 0 0 50.288 140.29 Q 50.253 140.045 50.137 139.897 A 0.538 0.538 0 0 0 49.803 139.697 A 0.824 0.824 0 0 0 49.646 139.683 A 0.778 0.778 0 0 0 49.452 139.706 A 0.521 0.521 0 0 0 49.162 139.894 A 0.676 0.676 0 0 0 49.057 140.097 Q 49.026 140.19 49.011 140.304 A 1.727 1.727 0 0 0 48.998 140.522 Z" id="front_labelLayer" stroke="#000000" fill="#000000" style="stroke:#000000;fill:#000000" vector-effect="non-scaling-stroke"/><path d="M 114.57 147.66 L 121.91 147.66 L 121.91 150.16 L 129.57 150.16 L 129.57 147.66 L 136.91 147.66 L 136.91 150.16 L 144.57 150.16 L 144.57 147.66 L 151.91 147.66 L 151.91 150.16 L 159.57 150.16 L 159.57 147.66 L 166.91 147.66 L 166.91 150.16 L 174.57 150.16 L 174.57 147.66 L 181.91 147.66 L 181.91 150.16 L 189.57 150.16 L 189.57 147.66 L 196.91 147.66 L 196.91 150.16 L 204.57 150.16 L 204.57 147.66 L 211.91 147.66 L 211.91 150.16 L 219.57 150.16 L 219.57 147.66 L 226.91 147.66 L 226.91 150.16 L 234.57 150.16 L 234.57 147.66 L 241.91 147.66 L 241.91 150.16 L 250.82 150.16 L 250.82 143.91 L 253.32 143.91 L 253.32 136.25 L 250.82 136.25 L 250.82 130 L 105.66 130 L 105.66 136.25 L 103.16 136.25 L 103.16 143.91 L 105.66 143.91 L 105.66 150.16 L 114.57 150.16 L 114.57 147.66 Z" id="left_outsideCutPath" stroke="#FF0000" stroke-width="0.1" style="stroke:#FF0000;stroke-width:0.1" vector-effect="non-scaling-stroke"/><path d="M 179.674 139.445 L 179.674 139.699 L 179.125 139.699 L 179.125 141.603 L 178.798 141.603 L 178.798 139.699 L 178.412 139.699 L 178.412 139.551 L 178.798 139.433 L 178.798 139.313 Q 178.798 138.627 179.316 138.533 A 0.993 0.993 0 0 1 179.493 138.518 A 1.052 1.052 0 0 1 179.642 138.529 Q 179.714 138.54 179.795 138.559 A 2.116 2.116 0 0 1 179.895 138.587 L 179.81 138.849 A 1.587 1.587 0 0 0 179.687 138.814 Q 179.624 138.799 179.569 138.793 A 0.703 0.703 0 0 0 179.487 138.787 A 0.441 0.441 0 0 0 179.381 138.799 A 0.283 0.283 0 0 0 179.214 138.911 Q 179.133 139.022 179.126 139.256 A 1.543 1.543 0 0 0 179.125 139.305 L 179.125 139.445 L 179.674 139.445 Z M 178.145 140.376 L 178.145 140.583 L 176.658 140.583 A 1.312 1.312 0 0 0 176.681 140.803 Q 176.725 141.024 176.85 141.16 A 0.594 0.594 0 0 0 177.162 141.335 A 0.9 0.9 0 0 0 177.363 141.357 A 1.726 1.726 0 0 0 178.009 141.229 A 1.977 1.977 0 0 0 178.052 141.211 L 178.052 141.502 A 1.962 1.962 0 0 1 177.873 141.57 A 1.5 1.5 0 0 1 177.724 141.61 A 1.372 1.372 0 0 1 177.588 141.631 Q 177.481 141.642 177.351 141.642 Q 176.873 141.642 176.596 141.351 A 0.962 0.962 0 0 1 176.366 140.928 Q 176.319 140.754 176.319 140.542 Q 176.319 140.116 176.49 139.834 A 0.968 0.968 0 0 1 176.576 139.713 A 0.837 0.837 0 0 1 177.187 139.408 A 1.155 1.155 0 0 1 177.266 139.406 A 0.996 0.996 0 0 1 177.547 139.443 A 0.758 0.758 0 0 1 177.908 139.672 A 0.914 0.914 0 0 1 178.115 140.09 A 1.33 1.33 0 0 1 178.145 140.376 Z M 181.06 141.333 L 181.06 141.583 A 0.321 0.321 0 0 1 181.022 141.598 Q 180.981 141.612 180.923 141.622 A 1.222 1.222 0 0 1 180.904 141.625 Q 180.8 141.642 180.718 141.642 A 0.854 0.854 0 0 1 180.466 141.608 Q 180.092 141.493 180.092 140.983 L 180.092 139.699 L 179.783 139.699 L 179.783 139.542 L 180.092 139.406 L 180.229 138.945 L 180.418 138.945 L 180.418 139.445 L 181.044 139.445 L 181.044 139.699 L 180.418 139.699 L 180.418 140.969 A 0.658 0.658 0 0 0 180.428 141.084 Q 180.439 141.148 180.464 141.198 A 0.317 0.317 0 0 0 180.511 141.268 A 0.304 0.304 0 0 0 180.698 141.367 A 0.437 0.437 0 0 0 180.765 141.372 A 1.073 1.073 0 0 0 180.922 141.361 A 0.989 0.989 0 0 0 180.932 141.36 Q 181.009 141.347 181.056 141.334 A 0.493 0.493 0 0 0 181.06 141.333 Z M 175.747 138.539 L 175.747 141.603 L 175.42 141.603 L 175.42 138.539 L 175.747 138.539 Z M 176.666 140.317 L 177.794 140.317 A 1.114 1.114 0 0 0 177.781 140.138 Q 177.765 140.042 177.731 139.965 A 0.506 0.506 0 0 0 177.656 139.844 Q 177.518 139.679 177.263 139.679 A 0.644 0.644 0 0 0 177.076 139.705 A 0.498 0.498 0 0 0 176.848 139.849 A 0.646 0.646 0 0 0 176.72 140.065 Q 176.679 140.177 176.666 140.317 Z" id="left_labelLayer" stroke="#000000" fill="#000000" style="stroke:#000000;fill:#000000" vector-effect="non-scaling-stroke"/><path d="M 8.91 124.5 L 16.25 124.5 L 16.25 127 L 23.91 127 L 23.91 124.5 L 31.25 124.5 L 31.25 127 L 38.91 127 L 38.91 124.5 L 46.25 124.5 L 46.25 127 L 53.91 127 L 53.91 124.5 L 61.25 124.5 L 61.25 127 L 68.91 127 L 68.91 124.5 L 76.25 124.5 L 76.25 127 L 83.91 127 L 83.91 124.5 L 91.25 124.5 L 91.25 127 L 100.16 127 L 100.16 120.59 L 97.66 120.59 L 97.66 113.25 L 100.16 113.25 L 100.16 106.84 L 0 106.84 L 0 113.25 L 2.5 113.25 L 2.5 120.59 L 0 120.59 L 0 127 L 8.91 127 L 8.91 124.5 Z" id="back_outsideCutPath" stroke="#FF0000" stroke-width="0.1" style="stroke:#FF0000;stroke-width:0.1" vector-effect="non-scaling-stroke"/><path d="M 52.84 117.328 L 52.856 117.328 Q 52.941 117.207 53.114 117.013 L 53.811 116.274 L 54.199 116.274 L 53.325 117.194 L 54.26 118.432 L 53.864 118.432 L 53.102 117.412 L 52.856 117.625 L 52.856 118.432 L 52.533 118.432 L 52.533 115.369 L 52.856 115.369 L 52.856 116.993 A 2.178 2.178 0 0 1 52.855 117.054 Q 52.852 117.158 52.84 117.328 Z M 46.227 118.154 L 46.204 118.154 L 46.135 118.432 L 45.9 118.432 L 45.9 115.369 L 46.227 115.369 L 46.227 116.113 A 6.814 6.814 0 0 1 46.223 116.343 Q 46.22 116.459 46.211 116.562 L 46.227 116.562 A 0.743 0.743 0 0 1 46.77 116.247 A 1.116 1.116 0 0 1 46.904 116.239 A 0.999 0.999 0 0 1 47.186 116.276 A 0.748 0.748 0 0 1 47.565 116.529 A 0.963 0.963 0 0 1 47.734 116.854 Q 47.775 116.988 47.791 117.149 A 2.098 2.098 0 0 1 47.8 117.351 A 1.916 1.916 0 0 1 47.775 117.674 Q 47.745 117.845 47.682 117.983 A 0.919 0.919 0 0 1 47.563 118.177 A 0.774 0.774 0 0 1 47.013 118.466 A 1.108 1.108 0 0 1 46.904 118.471 A 0.991 0.991 0 0 1 46.655 118.441 A 0.863 0.863 0 0 1 46.52 118.394 Q 46.345 118.316 46.227 118.154 Z M 49.94 118.432 L 49.698 118.432 L 49.633 118.125 L 49.617 118.125 A 1.355 1.355 0 0 1 49.508 118.248 Q 49.449 118.306 49.39 118.346 A 0.602 0.602 0 0 1 49.295 118.399 Q 49.163 118.459 48.977 118.469 A 1.471 1.471 0 0 1 48.895 118.471 A 1.003 1.003 0 0 1 48.691 118.452 Q 48.566 118.426 48.47 118.366 A 0.563 0.563 0 0 1 48.392 118.306 A 0.537 0.537 0 0 1 48.23 118.023 A 0.822 0.822 0 0 1 48.21 117.835 A 0.565 0.565 0 0 1 48.531 117.302 Q 48.771 117.174 49.189 117.153 A 3.192 3.192 0 0 1 49.255 117.15 L 49.621 117.139 L 49.621 117.005 A 0.939 0.939 0 0 0 49.612 116.869 Q 49.59 116.716 49.512 116.63 Q 49.425 116.533 49.254 116.513 A 0.807 0.807 0 0 0 49.163 116.509 Q 48.946 116.509 48.683 116.615 A 2.189 2.189 0 0 0 48.552 116.674 L 48.452 116.424 A 1.507 1.507 0 0 1 48.743 116.304 A 1.715 1.715 0 0 1 48.801 116.288 A 1.514 1.514 0 0 1 49.182 116.239 Q 49.568 116.239 49.754 116.41 Q 49.94 116.581 49.94 116.959 L 49.94 118.432 Z M 52.053 116.347 L 51.952 116.625 A 1.454 1.454 0 0 0 51.795 116.572 A 1.737 1.737 0 0 0 51.716 116.553 A 1.35 1.35 0 0 0 51.613 116.534 Q 51.563 116.527 51.519 116.525 A 0.724 0.724 0 0 0 51.49 116.524 Q 50.906 116.524 50.84 117.186 A 1.806 1.806 0 0 0 50.832 117.363 A 1.583 1.583 0 0 0 50.848 117.593 Q 50.865 117.71 50.901 117.805 A 0.678 0.678 0 0 0 50.993 117.973 A 0.519 0.519 0 0 0 51.329 118.174 A 0.791 0.791 0 0 0 51.468 118.186 A 1.368 1.368 0 0 0 51.845 118.131 A 1.689 1.689 0 0 0 52.021 118.07 L 52.021 118.359 Q 51.835 118.456 51.566 118.469 A 1.792 1.792 0 0 1 51.476 118.471 A 1.221 1.221 0 0 1 51.179 118.437 A 0.828 0.828 0 0 1 50.75 118.183 A 0.945 0.945 0 0 1 50.554 117.822 Q 50.493 117.622 50.493 117.367 A 1.803 1.803 0 0 1 50.521 117.039 Q 50.579 116.729 50.754 116.53 A 0.846 0.846 0 0 1 51.218 116.264 A 1.283 1.283 0 0 1 51.497 116.235 Q 51.653 116.235 51.809 116.268 A 1.631 1.631 0 0 1 51.899 116.29 Q 51.99 116.316 52.051 116.346 A 0.501 0.501 0 0 1 52.053 116.347 Z M 46.501 116.594 A 0.435 0.435 0 0 0 46.375 116.704 A 0.559 0.559 0 0 0 46.294 116.859 Q 46.239 117.012 46.229 117.245 A 2.518 2.518 0 0 0 46.227 117.351 Q 46.227 117.737 46.337 117.937 A 0.493 0.493 0 0 0 46.379 118.002 A 0.474 0.474 0 0 0 46.619 118.164 Q 46.7 118.189 46.798 118.196 A 1.051 1.051 0 0 0 46.865 118.198 A 0.651 0.651 0 0 0 47.05 118.173 A 0.47 0.47 0 0 0 47.314 117.978 Q 47.419 117.821 47.45 117.567 A 1.873 1.873 0 0 0 47.462 117.347 Q 47.462 116.926 47.314 116.719 Q 47.166 116.512 46.857 116.512 Q 46.64 116.512 46.501 116.594 Z M 49.613 117.566 L 49.613 117.371 L 49.287 117.385 A 2.4 2.4 0 0 0 49.095 117.399 Q 48.906 117.421 48.787 117.473 A 0.502 0.502 0 0 0 48.725 117.506 A 0.349 0.349 0 0 0 48.558 117.759 A 0.516 0.516 0 0 0 48.552 117.839 Q 48.552 117.995 48.635 118.086 A 0.291 0.291 0 0 0 48.66 118.109 A 0.356 0.356 0 0 0 48.793 118.18 Q 48.846 118.196 48.909 118.2 A 0.735 0.735 0 0 0 48.96 118.202 A 0.9 0.9 0 0 0 49.154 118.182 Q 49.289 118.152 49.389 118.077 A 0.546 0.546 0 0 0 49.439 118.034 A 0.547 0.547 0 0 0 49.592 117.761 Q 49.613 117.673 49.613 117.569 A 1.049 1.049 0 0 0 49.613 117.566 Z" id="back_labelLayer" stroke="#000000" fill="#000000" style="stroke:#000000;fill:#000000" vector-effect="non-scaling-stroke"/><path d="M 114.57 124.5 L 121.91 124.5 L 121.91 127 L 129.57 127 L 129.57 124.5 L 136.91 124.5 L 136.91 127 L 144.57 127 L 144.57 124.5 L 151.91 124.5 L 151.91 127 L 159.57 127 L 159.57 124.5 L 166.91 124.5 L 166.91 127 L 174.57 127 L 174.57 124.5 L 181.91 124.5 L 181.91 127 L 189.57 127 L 189.57 124.5 L 196.91 124.5 L 196.91 127 L 204.57 127 L 204.57 124.5 L 211.91 124.5 L 211.91 127 L 219.57 127 L 219.57 124.5 L 226.91 124.5 L 226.91 127 L 234.57 127 L 234.57 124.5 L 241.91 124.5 L 241.91 127 L 250.82 127 L 250.82 120.75 L 253.32 120.75 L 253.32 113.09 L 250.82 113.09 L 250.82 106.84 L 105.66 106.84 L 105.66 113.09 L 103.16 113.09 L 103.16 120.75 L 105.66 120.75 L 105.66 127 L 114.57 127 L 114.57 124.5 Z" id="right_outsideCutPath" stroke="#FF0000" stroke-width="0.1" style="stroke:#FF0000;stroke-width:0.1" vector-effect="non-scaling-stroke"/><path d="M 180.747 117.967 L 180.42 117.967 L 180.42 116.572 A 0.924 0.924 0 0 0 180.41 116.427 Q 180.398 116.35 180.372 116.29 A 0.389 0.389 0 0 0 180.3 116.178 A 0.368 0.368 0 0 0 180.149 116.081 Q 180.09 116.06 180.017 116.053 A 0.866 0.866 0 0 0 179.924 116.048 Q 179.584 116.048 179.427 116.233 A 0.544 0.544 0 0 0 179.335 116.396 Q 179.279 116.546 179.272 116.769 A 2.109 2.109 0 0 0 179.271 116.839 L 179.271 117.967 L 178.944 117.967 L 178.944 114.904 L 179.271 114.904 L 179.271 115.831 A 2.94 2.94 0 0 1 179.269 115.944 Q 179.265 116.038 179.255 116.109 L 179.275 116.109 A 0.653 0.653 0 0 1 179.503 115.889 A 0.798 0.798 0 0 1 179.549 115.864 A 0.839 0.839 0 0 1 179.825 115.782 A 1.061 1.061 0 0 1 179.956 115.774 Q 180.216 115.774 180.391 115.856 A 0.589 0.589 0 0 1 180.549 115.962 A 0.569 0.569 0 0 1 180.69 116.183 Q 180.723 116.274 180.737 116.388 A 1.413 1.413 0 0 1 180.747 116.56 L 180.747 117.967 Z M 177.755 115.81 L 178.501 115.81 L 178.501 116.016 L 178.101 116.064 Q 178.148 116.122 178.186 116.21 A 1.007 1.007 0 0 1 178.2 116.244 A 0.629 0.629 0 0 1 178.237 116.394 A 0.807 0.807 0 0 1 178.243 116.495 A 0.749 0.749 0 0 1 178.209 116.727 A 0.606 0.606 0 0 1 178.026 117.001 A 0.725 0.725 0 0 1 177.741 117.151 Q 177.633 117.181 177.505 117.188 A 1.42 1.42 0 0 1 177.432 117.19 A 1.05 1.05 0 0 1 177.31 117.183 A 0.887 0.887 0 0 1 177.251 117.174 Q 177.132 117.237 177.08 117.318 A 0.246 0.246 0 0 0 177.042 117.452 A 0.169 0.169 0 0 0 177.051 117.507 Q 177.067 117.555 177.115 117.582 A 0.229 0.229 0 0 0 177.166 117.603 Q 177.219 117.619 177.3 117.623 A 1.243 1.243 0 0 0 177.365 117.625 L 177.747 117.625 A 1.338 1.338 0 0 1 177.95 117.639 Q 178.056 117.656 178.142 117.69 A 0.591 0.591 0 0 1 178.285 117.772 A 0.478 0.478 0 0 1 178.463 118.077 A 0.718 0.718 0 0 1 178.473 118.202 A 0.708 0.708 0 0 1 178.433 118.446 Q 178.368 118.625 178.197 118.741 A 0.776 0.776 0 0 1 178.186 118.748 A 0.98 0.98 0 0 1 177.933 118.863 Q 177.692 118.936 177.347 118.936 A 1.831 1.831 0 0 1 177.102 118.921 Q 176.852 118.887 176.695 118.778 Q 176.465 118.621 176.465 118.334 Q 176.465 118.137 176.591 117.993 A 0.571 0.571 0 0 1 176.787 117.85 A 0.809 0.809 0 0 1 176.946 117.798 Q 176.863 117.761 176.807 117.682 A 0.303 0.303 0 0 1 176.751 117.518 A 0.375 0.375 0 0 1 176.751 117.499 Q 176.751 117.381 176.814 117.292 A 0.468 0.468 0 0 1 176.875 117.222 Q 176.931 117.171 177.012 117.121 Q 176.845 117.052 176.74 116.887 A 0.676 0.676 0 0 1 176.636 116.561 A 0.824 0.824 0 0 1 176.634 116.509 A 0.944 0.944 0 0 1 176.659 116.285 A 0.621 0.621 0 0 1 176.847 115.962 A 0.694 0.694 0 0 1 177.113 115.815 Q 177.261 115.77 177.45 115.77 Q 177.619 115.77 177.755 115.81 Z M 182.411 117.698 L 182.411 117.948 A 0.321 0.321 0 0 1 182.373 117.963 Q 182.332 117.976 182.274 117.987 A 1.222 1.222 0 0 1 182.254 117.99 Q 182.151 118.007 182.068 118.007 A 0.854 0.854 0 0 1 181.817 117.973 Q 181.442 117.857 181.442 117.347 L 181.442 116.064 L 181.133 116.064 L 181.133 115.906 L 181.442 115.77 L 181.58 115.31 L 181.769 115.31 L 181.769 115.81 L 182.395 115.81 L 182.395 116.064 L 181.769 116.064 L 181.769 117.333 A 0.658 0.658 0 0 0 181.778 117.449 Q 181.79 117.512 181.815 117.563 A 0.317 0.317 0 0 0 181.862 117.633 A 0.304 0.304 0 0 0 182.048 117.732 A 0.437 0.437 0 0 0 182.115 117.737 A 1.073 1.073 0 0 0 182.273 117.726 A 0.989 0.989 0 0 0 182.283 117.724 Q 182.36 117.712 182.406 117.699 A 0.493 0.493 0 0 0 182.411 117.698 Z M 175.311 115.794 L 175.266 116.097 A 1.44 1.44 0 0 0 175.163 116.078 Q 175.111 116.07 175.065 116.068 A 0.766 0.766 0 0 0 175.03 116.068 A 0.566 0.566 0 0 0 174.612 116.248 A 0.775 0.775 0 0 0 174.582 116.28 A 0.746 0.746 0 0 0 174.402 116.699 A 0.992 0.992 0 0 0 174.396 116.81 L 174.396 117.967 L 174.069 117.967 L 174.069 115.81 L 174.339 115.81 L 174.376 116.209 L 174.392 116.209 A 1.104 1.104 0 0 1 174.515 116.033 A 0.843 0.843 0 0 1 174.681 115.884 Q 174.851 115.77 175.054 115.77 A 1.5 1.5 0 0 1 175.188 115.776 A 1.095 1.095 0 0 1 175.311 115.794 Z M 176.042 115.81 L 176.042 117.967 L 175.715 117.967 L 175.715 115.81 L 176.042 115.81 Z M 177.642 117.918 L 177.251 117.918 Q 177.028 117.918 176.904 118.024 Q 176.78 118.131 176.78 118.33 A 0.328 0.328 0 0 0 176.802 118.451 Q 176.837 118.54 176.928 118.595 A 0.523 0.523 0 0 0 177.057 118.651 Q 177.178 118.686 177.348 118.686 A 1.805 1.805 0 0 0 177.351 118.686 A 2.197 2.197 0 0 0 177.566 118.676 Q 177.818 118.651 177.96 118.563 A 0.477 0.477 0 0 0 178.071 118.47 A 0.357 0.357 0 0 0 178.158 118.229 A 0.442 0.442 0 0 0 178.15 118.141 Q 178.14 118.091 178.117 118.053 A 0.206 0.206 0 0 0 178.05 117.986 Q 177.968 117.934 177.774 117.922 A 2.079 2.079 0 0 0 177.642 117.918 Z M 176.957 116.501 Q 176.957 116.727 177.085 116.843 A 0.422 0.422 0 0 0 177.255 116.936 Q 177.32 116.954 177.397 116.958 A 0.841 0.841 0 0 0 177.442 116.959 Q 177.819 116.959 177.899 116.67 A 0.662 0.662 0 0 0 177.92 116.495 Q 177.92 116.109 177.615 116.029 A 0.711 0.711 0 0 0 177.436 116.008 A 0.686 0.686 0 0 0 177.296 116.022 Q 177.21 116.04 177.145 116.081 A 0.376 0.376 0 0 0 177.081 116.132 Q 176.957 116.257 176.957 116.501 Z M 175.692 115.165 A 0.362 0.362 0 0 0 175.688 115.225 Q 175.688 115.28 175.702 115.322 A 0.169 0.169 0 0 0 175.743 115.389 A 0.183 0.183 0 0 0 175.809 115.432 A 0.208 0.208 0 0 0 175.88 115.443 Q 175.959 115.443 176.016 115.389 Q 176.056 115.352 176.068 115.287 A 0.338 0.338 0 0 0 176.073 115.225 A 0.374 0.374 0 0 0 176.072 115.189 Q 176.069 115.157 176.06 115.131 A 0.165 0.165 0 0 0 176.016 115.061 Q 175.959 115.008 175.88 115.008 A 0.25 0.25 0 0 0 175.864 115.009 A 0.189 0.189 0 0 0 175.743 115.061 A 0.153 0.153 0 0 0 175.709 115.108 Q 175.697 115.133 175.692 115.165 Z" id="right_labelLayer" stroke="#000000" fill="#000000" style="stroke:#000000;fill:#000000" vector-effect="non-scaling-stroke"/><path d="M 272.73 147.66 L 280.07 147.66 L 280.07 150.16 L 287.73 150.16 L 287.73 147.66 L 295.07 147.66 L 295.07 150.16 L 302.73 150.16 L 302.73 147.66 L 310.07 147.66 L 310.07 150.16 L 317.73 150.16 L 317.73 147.66 L 325.07 147.66 L 325.07 150.16 L 332.73 150.16 L 332.73 147.66 L 340.07 147.66 L 340.07 150.16 L 347.73 150.16 L 347.73 147.66 L 353.98 147.66 L 353.98 138.91 L 356.48 138.91 L 356.48 131.25 L 353.98 131.25 L 353.98 123.91 L 356.48 123.91 L 356.48 116.25 L 353.98 116.25 L 353.98 108.91 L 356.48 108.91 L 356.48 101.25 L 353.98 101.25 L 353.98 93.91 L 356.48 93.91 L 356.48 86.25 L 353.98 86.25 L 353.98 78.91 L 356.48 78.91 L 356.48 71.25 L 353.98 71.25 L 353.98 63.91 L 356.48 63.91 L 356.48 56.25 L 353.98 56.25 L 353.98 48.91 L 356.48 48.91 L 356.48 41.25 L 353.98 41.25 L 353.98 33.91 L 356.48 33.91 L 356.48 26.25 L 353.98 26.25 L 353.98 18.91 L 356.48 18.91 L 356.48 11.25 L 353.98 11.25 L 353.98 2.5 L 347.73 2.5 L 347.73 0 L 340.07 0 L 340.07 2.5 L 332.73 2.5 L 332.73 0 L 325.07 0 L 325.07 2.5 L 317.73 2.5 L 317.73 0 L 310.07 0 L 310.07 2.5 L 302.73 2.5 L 302.73 0 L 295.07 0 L 295.07 2.5 L 287.73 2.5 L 287.73 0 L 280.07 0 L 280.07 2.5 L 272.73 2.5 L 272.73 0 L 265.07 0 L 265.07 2.5 L 258.82 2.5 L 258.82 11.25 L 256.32 11.25 L 256.32 18.91 L 258.82 18.91 L 258.82 26.25 L 256.32 26.25 L 256.32 33.91 L 258.82 33.91 L 258.82 41.25 L 256.32 41.25 L 256.32 48.91 L 258.82 48.91 L 258.82 56.25 L 256.32 56.25 L 256.32 63.91 L 258.82 63.91 L 258.82 71.25 L 256.32 71.25 L 256.32 78.91 L 258.82 78.91 L 258.82 86.25 L 256.32 86.25 L 256.32 93.91 L 258.82 93.91 L 258.82 101.25 L 256.32 101.25 L 256.32 108.91 L 258.82 108.91 L 258.82 116.25 L 256.32 116.25 L 256.32 123.91 L 258.82 123.91 L 258.82 131.25 L 256.32 131.25 L 256.32 138.91 L 258.82 138.91 L 258.82 147.66 L 265.07 147.66 L 265.07 150.16 L 272.73 150.16 L 272.73 147.66 Z" id="bottom_outsideCutPath" stroke="#FF0000" stroke-width="0.1" style="stroke:#FF0000;stroke-width:0.1" vector-effect="non-scaling-stroke"/><path d="M 339.353 82.592 L 337.729 82.592 L 337.729 75.618 Q 337.729 74.815 337.514 74.264 A 1.962 1.962 0 0 0 337.182 73.696 A 1.709 1.709 0 0 0 336.387 73.182 Q 335.994 73.055 335.48 73.055 A 4.178 4.178 0 0 0 334.629 73.136 Q 333.743 73.32 333.24 73.926 Q 332.516 74.796 332.516 76.606 L 332.516 82.592 L 330.892 82.592 L 330.892 75.618 Q 330.892 74.815 330.677 74.264 A 1.962 1.962 0 0 0 330.344 73.696 Q 329.797 73.055 328.633 73.055 Q 327.107 73.055 326.398 73.97 A 2.723 2.723 0 0 0 325.994 74.736 Q 325.689 75.6 325.689 76.968 L 325.689 82.592 L 324.065 82.592 L 324.065 71.871 L 325.385 71.871 L 325.649 73.339 L 325.728 73.339 Q 326.187 72.556 327.024 72.116 A 3.855 3.855 0 0 1 328.546 71.689 A 4.656 4.656 0 0 1 328.897 71.676 A 5.316 5.316 0 0 1 330.093 71.8 Q 331.613 72.152 332.183 73.495 L 332.262 73.495 A 3.39 3.39 0 0 1 333.538 72.227 A 4.073 4.073 0 0 1 333.651 72.165 A 4.11 4.11 0 0 1 335.158 71.706 A 5.124 5.124 0 0 1 335.724 71.676 Q 336.95 71.676 337.761 72.1 A 2.676 2.676 0 0 1 338.448 72.61 Q 339.107 73.29 339.286 74.564 A 7.447 7.447 0 0 1 339.353 75.598 L 339.353 82.592 Z M 275.071 81.213 L 274.953 81.213 L 274.611 82.592 L 273.447 82.592 L 273.447 67.372 L 275.071 67.372 L 275.071 71.069 A 33.853 33.853 0 0 1 275.052 72.213 Q 275.033 72.79 274.992 73.3 L 275.071 73.3 Q 276.205 71.695 278.435 71.695 A 4.963 4.963 0 0 1 279.832 71.882 A 3.715 3.715 0 0 1 281.717 73.138 A 4.785 4.785 0 0 1 282.556 74.754 Q 282.886 75.819 282.886 77.222 A 9.52 9.52 0 0 1 282.76 78.824 Q 282.5 80.341 281.707 81.325 A 3.844 3.844 0 0 1 278.975 82.762 A 5.507 5.507 0 0 1 278.435 82.787 A 4.925 4.925 0 0 1 277.198 82.636 A 4.285 4.285 0 0 1 276.523 82.401 A 3.596 3.596 0 0 1 275.071 81.213 Z M 302.752 81.252 L 302.752 82.494 A 1.597 1.597 0 0 1 302.562 82.569 Q 302.327 82.647 301.974 82.704 A 7.037 7.037 0 0 1 301.515 82.764 Q 301.299 82.784 301.105 82.787 A 4.16 4.16 0 0 1 301.05 82.787 Q 298.569 82.787 298.067 80.703 A 5.104 5.104 0 0 1 297.939 79.511 L 297.939 73.133 L 296.404 73.133 L 296.404 72.351 L 297.939 71.676 L 298.624 69.387 L 299.563 69.387 L 299.563 71.871 L 302.673 71.871 L 302.673 73.133 L 299.563 73.133 L 299.563 79.442 Q 299.563 80.123 299.79 80.581 A 1.575 1.575 0 0 0 300.023 80.929 A 1.508 1.508 0 0 0 300.95 81.423 A 2.17 2.17 0 0 0 301.284 81.447 A 5.332 5.332 0 0 0 302.066 81.391 A 4.915 4.915 0 0 0 302.116 81.384 A 8.783 8.783 0 0 0 302.35 81.344 Q 302.574 81.302 302.73 81.258 A 2.435 2.435 0 0 0 302.752 81.252 Z M 309.823 81.252 L 309.823 82.494 A 1.597 1.597 0 0 1 309.634 82.569 Q 309.399 82.647 309.046 82.704 A 7.037 7.037 0 0 1 308.587 82.764 Q 308.371 82.784 308.176 82.787 A 4.16 4.16 0 0 1 308.121 82.787 Q 305.641 82.787 305.138 80.703 A 5.104 5.104 0 0 1 305.011 79.511 L 305.011 73.133 L 303.475 73.133 L 303.475 72.351 L 305.011 71.676 L 305.696 69.387 L 306.635 69.387 L 306.635 71.871 L 309.745 71.871 L 309.745 73.133 L 306.635 73.133 L 306.635 79.442 Q 306.635 80.123 306.862 80.581 A 1.575 1.575 0 0 0 307.094 80.929 A 1.508 1.508 0 0 0 308.022 81.423 A 2.17 2.17 0 0 0 308.356 81.447 A 5.332 5.332 0 0 0 309.137 81.391 A 4.915 4.915 0 0 0 309.188 81.384 A 8.783 8.783 0 0 0 309.422 81.344 Q 309.646 81.302 309.802 81.258 A 2.435 2.435 0 0 0 309.823 81.252 Z M 294.975 77.222 Q 294.975 79.843 293.655 81.315 A 4.329 4.329 0 0 1 291.108 82.695 A 6.305 6.305 0 0 1 290.007 82.787 A 5.214 5.214 0 0 1 288.491 82.574 A 4.521 4.521 0 0 1 287.454 82.112 A 4.396 4.396 0 0 1 285.85 80.407 A 5.337 5.337 0 0 1 285.732 80.176 A 6.007 6.007 0 0 1 285.228 78.538 A 8.123 8.123 0 0 1 285.126 77.222 A 8.431 8.431 0 0 1 285.274 75.591 Q 285.566 74.109 286.436 73.138 A 4.295 4.295 0 0 1 288.942 71.773 A 6.306 6.306 0 0 1 290.075 71.676 A 5.456 5.456 0 0 1 291.677 71.9 A 4.251 4.251 0 0 1 293.65 73.172 Q 294.908 74.593 294.972 76.964 A 9.529 9.529 0 0 1 294.975 77.222 Z M 321.219 77.222 Q 321.219 79.843 319.898 81.315 A 4.329 4.329 0 0 1 317.351 82.695 A 6.305 6.305 0 0 1 316.25 82.787 A 5.214 5.214 0 0 1 314.735 82.574 A 4.521 4.521 0 0 1 313.697 82.112 A 4.396 4.396 0 0 1 312.093 80.407 A 5.337 5.337 0 0 1 311.975 80.176 A 6.007 6.007 0 0 1 311.471 78.538 A 8.123 8.123 0 0 1 311.369 77.222 A 8.431 8.431 0 0 1 311.517 75.591 Q 311.809 74.109 312.68 73.138 A 4.295 4.295 0 0 1 315.185 71.773 A 6.306 6.306 0 0 1 316.318 71.676 A 5.456 5.456 0 0 1 317.92 71.9 A 4.251 4.251 0 0 1 319.893 73.172 Q 321.151 74.593 321.215 76.964 A 9.529 9.529 0 0 1 321.219 77.222 Z M 286.808 77.222 Q 286.808 79.276 287.63 80.352 A 2.661 2.661 0 0 0 289.363 81.373 A 4.033 4.033 0 0 0 290.046 81.428 A 3.771 3.771 0 0 0 291.041 81.304 A 2.625 2.625 0 0 0 292.467 80.357 Q 293.293 79.286 293.293 77.222 A 8.102 8.102 0 0 0 293.216 76.067 Q 293.041 74.854 292.467 74.116 A 2.671 2.671 0 0 0 290.806 73.126 A 4.095 4.095 0 0 0 290.026 73.055 A 3.864 3.864 0 0 0 289.064 73.168 A 2.586 2.586 0 0 0 287.62 74.102 Q 286.808 75.148 286.808 77.222 Z M 313.051 77.222 Q 313.051 79.276 313.873 80.352 A 2.661 2.661 0 0 0 315.606 81.373 A 4.033 4.033 0 0 0 316.289 81.428 A 3.771 3.771 0 0 0 317.284 81.304 A 2.625 2.625 0 0 0 318.71 80.357 Q 319.536 79.286 319.536 77.222 A 8.102 8.102 0 0 0 319.459 76.067 Q 319.284 74.854 318.71 74.116 A 2.671 2.671 0 0 0 317.049 73.126 A 4.095 4.095 0 0 0 316.269 73.055 A 3.864 3.864 0 0 0 315.307 73.168 A 2.586 2.586 0 0 0 313.863 74.102 Q 313.051 75.148 313.051 77.222 Z M 278.201 73.055 A 4.563 4.563 0 0 0 277.317 73.135 Q 276.326 73.331 275.804 74.009 A 2.779 2.779 0 0 0 275.402 74.775 Q 275.071 75.704 275.071 77.222 A 10.736 10.736 0 0 0 275.124 78.331 Q 275.241 79.451 275.614 80.132 A 2.449 2.449 0 0 0 275.824 80.455 Q 276.499 81.327 277.905 81.417 A 5.221 5.221 0 0 0 278.24 81.428 A 3.237 3.237 0 0 0 279.159 81.305 A 2.335 2.335 0 0 0 280.47 80.337 Q 281.203 79.247 281.203 77.202 A 9.593 9.593 0 0 0 281.145 76.109 Q 281.008 74.914 280.544 74.192 A 2.694 2.694 0 0 0 280.47 74.082 A 2.368 2.368 0 0 0 278.962 73.128 A 3.755 3.755 0 0 0 278.201 73.055 Z" id="bottom_labelLayer" stroke="#000000" fill="#000000" style="stroke:#000000;fill:#000000" vector-effect="non-scaling-stroke"/></g></svg>